<svg width="24" height="36" viewBox="0 0 24 36" fill="none" xmlns="http://www.w3.org/2000/svg">
<path d="M3.72412 30.2975V17.0518C3.72412 16.7756 3.94798 16.5518 4.22412 16.5518H18.9483C19.2244 16.5518 19.4483 16.7756 19.4483 17.0518V30.2771C19.4483 30.6359 19.0817 30.8779 18.7518 30.7369L12.0566 27.876C11.9352 27.8241 11.7981 27.8224 11.6753 27.8712L4.40895 30.7621C4.08064 30.8927 3.72412 30.6508 3.72412 30.2975Z" fill="#FE5953" stroke="#B53331" stroke-linejoin="round"/>
<path d="M6.20703 34.2654V19.9482C6.20703 19.6721 6.43089 19.4482 6.70703 19.4482H16.4657C16.7418 19.4482 16.9657 19.6721 16.9657 19.9482V34.2292C16.9657 34.6304 16.517 34.8682 16.185 34.6431L12.0493 31.8388C11.8848 31.7272 11.6698 31.7237 11.5018 31.8298L6.97394 34.6882C6.641 34.8984 6.20703 34.6592 6.20703 34.2654Z" fill="#FE5953" stroke="#B53331" stroke-linejoin="round"/>
<circle cx="12" cy="12" r="11.5" fill="#F49943" stroke="#DC8637"/>
<path d="M20.4456 12.0001C20.4456 16.6644 16.6644 20.4456 12.0001 20.4456C7.33585 20.4456 3.55469 16.6644 3.55469 12.0001C3.55469 7.33585 7.33585 3.55469 12.0001 3.55469C16.6644 3.55469 20.4456 7.33585 20.4456 12.0001Z" fill="#FAA454" stroke="#DC8637"/>
<path d="M12.2183 6.80263L13.5773 9.55618C13.7229 9.85132 14.0045 10.0559 14.3302 10.1032L17.3689 10.5448L15.1701 12.6881C14.9344 12.9178 14.8268 13.2488 14.8825 13.5732L15.4016 16.5997L12.6836 15.1708C12.3923 15.0176 12.0443 15.0176 11.753 15.1708L9.03505 16.5997L9.55413 13.5732C9.60976 13.2488 9.50222 12.9178 9.26653 12.6881L7.06769 10.5448L10.1064 10.1032C10.4321 10.0559 10.7137 9.85132 10.8593 9.55618L12.2183 6.80263Z" fill="#FCCFA5" stroke="#DC8637" stroke-linejoin="round"/>
<path d="M2.73381 8.10562C3.4616 6.24594 5.9809 2.46845 10.2357 2.23597" stroke="#FCCFA5" stroke-linecap="round" stroke-linejoin="round"/>
<ellipse cx="2.18197" cy="9.59994" rx="0.436364" ry="0.436363" fill="#FCCFA5"/>
</svg>
