<svg width="1920" height="250" viewBox="0 0 1920 250" fill="none" xmlns="http://www.w3.org/2000/svg">
<g clip-path="url(#clip0_842_2060)">
<path d="M654.46 69.293L679.261 93.5023C685.623 100.52 703.964 110.285 727.246 94.546L727.245 94.5L753.019 74.3157C763.538 67.8401 774.26 71.6175 778.306 74.3157L797.523 88.4815C808.043 94.9575 818.09 91.1798 821.798 88.4815L836.97 77.3511C846.68 68.4468 860.571 73.641 866.303 77.3511L883.497 88.4815C892.398 93.3386 903.39 90.5053 907.773 88.4815L924.967 74.3157C933.868 67.8401 946.882 71.6175 952.277 74.3157L974.529 88.4815C986.666 94.9575 999.141 91.1798 1003.86 88.4815L1028.14 72.2924C1037.85 65.817 1049.71 69.5943 1054.43 72.2924L1072.64 82.4102C1085.59 90.5045 1098.26 85.7828 1102.98 82.4102L1118.16 69.2571C1133.53 57.9249 1149.51 64.5353 1155.58 69.2571L1178.84 85.4459C1191.79 92.7309 1203.12 88.4813 1207.16 85.4459L1229.42 69.2571C1242.36 58.7342 1259.76 64.8725 1266.84 69.2571C1271.56 72.2925 1284.84 80.387 1300.22 88.4815C1315.59 96.576 1327.53 91.8542 1331.57 88.4815L1354.84 72.2924C1366.17 62.579 1381.14 68.2451 1387.2 72.2924C1393.27 76.3396 1407 88.7097 1417 94.0586C1421.89 96.6757 1433.5 97.5586 1442.5 91.5586C1446.9 88.6279 1460.73 76.3982 1466.8 72.351C1472.86 68.3037 1487.83 62.6376 1499.16 72.351L1522.43 88.5401C1526.47 91.9128 1538.41 96.6346 1553.78 88.5401C1569.16 80.4456 1582.44 72.3511 1587.16 69.3157C1594.24 64.9311 1611.64 58.7928 1624.58 69.3157L1646.84 85.5045C1650.88 88.5399 1662.21 92.7895 1675.16 85.5045L1698.42 69.3157C1704.49 64.5939 1720.47 57.9835 1735.84 69.3157L1751.02 82.4688C1755.74 85.8414 1768.41 90.5631 1781.36 82.4688L1799.57 72.351C1804.29 69.6529 1816.15 65.8756 1825.86 72.351L1850.14 88.5401C1854.86 91.2384 1867.33 95.0161 1879.47 88.5401L1901.72 74.3743C1907.12 71.6761 1920.13 67.8987 1929.03 74.3743L1946.23 88.5401C1950.61 90.5639 1961.6 93.3972 1970.5 88.5401L1987.7 77.4097C1993.43 73.6996 2007.32 68.5054 2017.03 77.4097L2032.2 88.5401C2035.91 91.2384 2045.96 95.0161 2056.48 88.5401L2075.69 74.3743C2079.74 71.6761 2090.46 67.8987 2100.98 74.3743L2126.76 94.5586L2126.75 94.6046C2150.04 110.344 2168.38 100.578 2174.74 93.5609L2199.54 69.3516C2205.61 65.3041 2220.58 59.6375 2231.91 69.3516L2255.17 85.5419C2259.22 88.9148 2271.15 93.6369 2286.53 85.5419C2301.9 77.4468 2315.18 69.3517 2319.9 66.3161C2326.98 61.9313 2344.38 55.7925 2357.33 66.3161L2379.58 82.506C2383.63 85.5417 2394.95 89.7916 2407.9 82.506L2431.16 66.3161C2437.23 61.594 2453.21 54.9832 2468.59 66.3161L2483.76 79.4702C2488.48 82.843 2501.16 87.565 2514.1 79.4702L2532.31 69.3516C2537.03 66.6534 2548.9 62.8758 2558.61 69.3516L2582.88 85.5419C2587.6 88.2404 2600.08 92.0183 2612.22 85.5419L2634.47 71.3751C2639.86 68.6767 2652.88 64.899 2661.78 71.3751L2678.97 85.5419C2683.35 87.5658 2694.35 90.3993 2703.25 85.5419L2720.44 74.4107C2726.17 70.7004 2740.06 65.5058 2749.77 74.4107L2764.95 85.5419C2768.65 88.2404 2778.7 92.0183 2789.22 85.5419L2808.44 71.3751C2812.48 68.6767 2823.21 64.899 2833.72 71.3751L2858 90.6009V168.059H1426V168H-4V90.5423L20.275 71.3165C30.7942 64.8404 41.5157 68.6181 45.5616 71.3165L64.7793 85.4833C75.2984 91.9597 85.3456 88.1818 89.0543 85.4833L104.226 74.3521C113.936 65.4472 127.827 70.6418 133.559 74.3521L150.753 85.4833C159.654 90.3407 170.645 87.5072 175.028 85.4833L192.223 71.3165C201.124 64.8404 214.138 68.6181 219.533 71.3165L241.785 85.4833C253.922 91.9597 266.397 88.1818 271.117 85.4833L295.392 69.293C305.102 62.8172 316.97 66.5948 321.69 69.293L339.896 79.4116C352.843 87.5064 365.52 82.7844 370.24 79.4116L385.412 66.2575C400.786 54.9246 416.767 61.5354 422.836 66.2575L446.1 82.4474C459.046 89.733 470.375 85.4831 474.421 82.4474L496.673 66.2575C509.619 55.7339 527.016 61.8727 534.097 66.2575C538.817 69.2932 552.101 77.3882 567.475 85.4833C582.849 93.5784 594.784 88.8562 598.83 85.4833L622.094 69.293C633.422 59.5789 648.392 65.2455 654.46 69.293Z" fill="#D7F1FD"/>
<path d="M512.775 66.328C514.551 66.06 516.207 67.2822 516.475 69.0578L518.443 82.0965L531.482 80.1287C533.257 79.8608 534.914 81.083 535.182 82.8586L535.613 85.7164C535.881 87.492 534.659 89.1486 532.883 89.4166L519.845 91.3843L521.812 104.423C522.08 106.199 520.858 107.855 519.083 108.123L516.225 108.555C514.449 108.823 512.793 107.6 512.525 105.825L510.557 92.786L497.518 94.7537C495.743 95.0216 494.086 93.7994 493.818 92.0238L493.387 89.166C493.119 87.3904 494.341 85.7338 496.116 85.4658L509.155 83.4981L507.187 70.4595C506.92 68.6839 508.142 67.0272 509.917 66.7593L512.775 66.328Z" fill="white"/>
<path d="M1612.45 76.6645C1613.92 77.6928 1614.28 79.7199 1613.25 81.192L1605.7 92.0019L1616.51 99.5533C1617.98 100.582 1618.34 102.609 1617.32 104.081L1615.66 106.45C1614.63 107.922 1612.6 108.282 1611.13 107.254L1600.32 99.7021L1592.77 110.512C1591.74 111.984 1589.72 112.344 1588.24 111.316L1585.87 109.661C1584.4 108.632 1584.04 106.605 1585.07 105.133L1592.62 94.323L1581.81 86.7716C1580.34 85.7432 1579.98 83.7162 1581.01 82.2441L1582.66 79.8748C1583.69 78.4027 1585.72 78.0429 1587.19 79.0713L1598 86.6227L1605.55 75.8129C1606.58 74.3408 1608.61 73.981 1610.08 75.0094L1612.45 76.6645Z" fill="white"/>
<path d="M655.46 101.234L680.261 125.444C686.623 132.461 704.964 142.227 728.246 126.487L728.245 126.441L754.019 106.257C764.538 99.7815 775.26 103.559 779.306 106.257L798.523 120.423C809.043 126.899 819.09 123.121 822.798 120.423L837.97 109.293C847.68 100.388 861.571 105.582 867.303 109.293L884.497 120.423C893.398 125.28 904.39 122.447 908.773 120.423L925.967 106.257C934.868 99.7815 947.882 103.559 953.277 106.257L975.529 120.423C987.666 126.899 1000.14 123.121 1004.86 120.423L1029.14 104.234C1038.85 97.7584 1050.71 101.536 1055.43 104.234L1073.64 114.352C1086.59 122.446 1099.26 117.724 1103.98 114.352L1119.16 101.198C1134.53 89.8663 1150.51 96.4767 1156.58 101.198L1179.84 117.387C1192.79 124.672 1204.12 120.423 1208.16 117.387L1230.42 101.198C1243.36 90.6756 1260.76 96.814 1267.84 101.198C1272.56 104.234 1285.84 112.328 1301.22 120.423C1316.59 128.517 1328.53 123.796 1332.57 120.423L1355.84 104.234C1367.17 94.5204 1382.14 100.187 1388.2 104.234C1394.27 108.281 1408 120.651 1418 126C1422.89 128.617 1434.5 129.5 1443.5 123.5C1447.9 120.569 1461.73 108.34 1467.8 104.292C1473.86 100.245 1488.83 94.579 1500.16 104.292L1523.43 120.482C1527.47 123.854 1539.41 128.576 1554.78 120.482C1570.16 112.387 1583.44 104.293 1588.16 101.257C1595.24 96.8725 1612.64 90.7342 1625.58 101.257L1647.84 117.446C1651.88 120.481 1663.21 124.731 1676.16 117.446L1699.42 101.257C1705.49 96.5353 1721.47 89.9249 1736.84 101.257L1752.02 114.41C1756.74 117.783 1769.41 122.504 1782.36 114.41L1800.57 104.292C1805.29 101.594 1817.15 97.817 1826.86 104.292L1851.14 120.482C1855.86 123.18 1868.33 126.957 1880.47 120.482L1902.72 106.316C1908.12 103.618 1921.13 99.8401 1930.03 106.316L1947.23 120.482C1951.61 122.505 1962.6 125.339 1971.5 120.482L1988.7 109.351C1994.43 105.641 2008.32 100.447 2018.03 109.351L2033.2 120.482C2036.91 123.18 2046.96 126.957 2057.48 120.482L2076.69 106.316C2080.74 103.618 2091.46 99.8401 2101.98 106.316L2127.76 126.5L2127.75 126.546C2151.04 142.285 2169.38 132.52 2175.74 125.502L2200.54 101.293C2206.61 97.2455 2221.58 91.5789 2232.91 101.293L2256.17 117.483C2260.22 120.856 2272.15 125.578 2287.53 117.483C2302.9 109.388 2316.18 101.293 2320.9 98.2575C2327.98 93.8727 2345.38 87.7339 2358.33 98.2575L2380.58 114.447C2384.63 117.483 2395.95 121.733 2408.9 114.447L2432.16 98.2575C2438.23 93.5354 2454.21 86.9246 2469.59 98.2575L2484.76 111.412C2489.48 114.784 2502.16 119.506 2515.1 111.412L2533.31 101.293C2538.03 98.5948 2549.9 94.8172 2559.61 101.293L2583.88 117.483C2588.6 120.182 2601.08 123.96 2613.22 117.483L2635.47 103.316C2640.86 100.618 2653.88 96.8404 2662.78 103.316L2679.97 117.483C2684.35 119.507 2695.35 122.341 2704.25 117.483L2721.44 106.352C2727.17 102.642 2741.06 97.4472 2750.77 106.352L2765.95 117.483C2769.65 120.182 2779.7 123.96 2790.22 117.483L2809.44 103.316C2813.48 100.618 2824.21 96.8404 2834.72 103.316L2859 122.542V386.5H1418H-3L-3 122.484L21.275 103.258C31.7942 96.7818 42.5157 100.56 46.5616 103.258L65.7793 117.425C76.2984 123.901 86.3456 120.123 90.0543 117.425L105.226 106.294C114.936 97.3886 128.827 102.583 134.559 106.294L151.753 117.425C160.654 122.282 171.645 119.449 176.028 117.425L193.223 103.258C202.124 96.7818 215.138 100.56 220.533 103.258L242.785 117.425C254.922 123.901 267.397 120.123 272.117 117.425L296.392 101.234C306.102 94.7586 317.97 98.5362 322.69 101.234L340.896 111.353C353.843 119.448 366.52 114.726 371.24 111.353L386.412 98.1989C401.786 86.866 417.767 93.4769 423.836 98.1989L447.1 114.389C460.046 121.674 471.375 117.425 475.421 114.389L497.673 98.1989C510.619 87.6753 528.016 93.8141 535.097 98.1989C539.817 101.235 553.101 109.33 568.475 117.425C583.849 125.52 595.784 120.798 599.83 117.425L623.094 101.234C634.422 91.5204 649.392 97.1869 655.46 101.234Z" fill="#B9DAF6"/>
<path d="M152.5 33.9414C153.605 33.9414 154.5 34.8368 154.5 35.9414V44.4413H163C164.105 44.4413 165 45.3368 165 46.4413V48.4413C165 49.5459 164.105 50.4413 163 50.4413H154.5V58.9414C154.5 60.046 153.605 60.9414 152.5 60.9414H150.5C149.395 60.9414 148.5 60.046 148.5 58.9414V50.4413H140C138.895 50.4413 138 49.5459 138 48.4413V46.4413C138 45.3368 138.895 44.4413 140 44.4413H148.5V35.9414C148.5 34.8368 149.395 33.9414 150.5 33.9414H152.5Z" fill="#D7F1FD"/>
<path d="M197 6.2963C197.567 6.62358 197.761 7.34842 197.434 7.91529L194.915 12.2775L199.278 14.796C199.844 15.1233 200.039 15.8481 199.711 16.415L199.119 17.4414C198.791 18.0082 198.067 18.2025 197.5 17.8752L193.138 15.3567L190.619 19.7189C190.292 20.2858 189.567 20.48 189 20.1527L187.974 19.5601C187.407 19.2328 187.213 18.508 187.54 17.9411L190.058 13.5789L185.696 11.0604C185.129 10.7331 184.935 10.0082 185.262 9.44137L185.855 8.41497C186.182 7.8481 186.907 7.65388 187.474 7.98116L191.836 10.4997L194.355 6.13751C194.682 5.57065 195.407 5.37642 195.974 5.7037L197 6.2963Z" fill="white"/>
<path d="M436.441 33.2377C437.008 33.565 437.202 34.2898 436.875 34.8567L434.357 39.2189L438.719 41.7374C439.286 42.0647 439.48 42.7895 439.153 43.3564L438.56 44.3828C438.233 44.9496 437.508 45.1439 436.941 44.8166L432.579 42.2981L430.06 46.6603C429.733 47.2272 429.008 47.4214 428.441 47.0941L427.415 46.5015C426.848 46.1742 426.654 45.4494 426.981 44.8825L429.5 40.5203L425.138 38.0018C424.571 37.6745 424.376 36.9496 424.704 36.3828L425.296 35.3564C425.624 34.7895 426.348 34.5953 426.915 34.9226L431.278 37.4411L433.796 33.0789C434.123 32.5121 434.848 32.3178 435.415 32.6451L436.441 33.2377Z" fill="#2967AC"/>
<path d="M103.441 82.2963C104.008 82.6236 104.202 83.3484 103.875 83.9153L101.357 88.2775L105.719 90.796C106.286 91.1233 106.48 91.8481 106.153 92.415L105.56 93.4414C105.233 94.0082 104.508 94.2025 103.941 93.8752L99.5789 91.3567L97.0604 95.7189C96.7331 96.2858 96.0083 96.48 95.4414 96.1527L94.415 95.5601C93.8481 95.2328 93.6539 94.508 93.9812 93.9411L96.4997 89.5789L92.1375 87.0604C91.5707 86.7331 91.3764 86.0082 91.7037 85.4414L92.2963 84.415C92.6236 83.8481 93.3484 83.6539 93.9153 83.9812L98.2775 86.4997L100.796 82.1375C101.123 81.5706 101.848 81.3764 102.415 81.7037L103.441 82.2963Z" fill="#2967AC"/>
<path d="M1042.47 21.2181C1043.05 21.5308 1043.26 22.2504 1042.95 22.8255L1040.54 27.2508L1044.97 29.6566C1045.54 29.9692 1045.75 30.6888 1045.44 31.2639L1044.88 32.3052C1044.56 32.8802 1043.84 33.093 1043.27 32.7804L1038.84 30.3747L1036.44 34.8001C1036.12 35.3752 1035.4 35.5879 1034.83 35.2753L1033.79 34.7093C1033.21 34.3966 1033 33.677 1033.31 33.1019L1035.72 28.6765L1031.29 26.2708C1030.72 25.9581 1030.51 25.2385 1030.82 24.6634L1031.38 23.6222C1031.7 23.0471 1032.42 22.8343 1032.99 23.147L1037.42 25.5527L1039.82 21.1273C1040.14 20.5522 1040.85 20.3395 1041.43 20.6521L1042.47 21.2181Z" fill="#2967AC"/>
<path d="M738.111 106.495C738.209 107.142 737.764 107.746 737.117 107.845L732.138 108.602L732.895 113.582C732.994 114.229 732.549 114.834 731.902 114.932L730.73 115.11C730.083 115.209 729.478 114.764 729.38 114.117L728.622 109.137L723.643 109.895C722.996 109.993 722.391 109.548 722.293 108.901L722.114 107.73C722.016 107.082 722.461 106.478 723.108 106.38L728.088 105.622L727.33 100.642C727.232 99.9952 727.676 99.3908 728.324 99.2923L729.495 99.1141C730.142 99.0156 730.747 99.4604 730.845 100.108L731.603 105.087L736.582 104.33C737.23 104.231 737.834 104.676 737.932 105.323L738.111 106.495Z" fill="#2967AC"/>
<path d="M895.987 47.0713C896.706 47.462 896.972 48.3616 896.581 49.0804L893.574 54.6121L899.106 57.6193C899.825 58.0101 900.091 58.9096 899.7 59.6284L898.992 60.93C898.602 61.6489 897.702 61.9148 896.983 61.5241L891.451 58.5169L888.444 64.0487C888.054 64.7676 887.154 65.0335 886.435 64.6427L885.134 63.9352C884.415 63.5444 884.149 62.6449 884.54 61.926L887.547 56.3942L882.015 53.387C881.296 52.9963 881.03 52.0967 881.421 51.3779L882.129 50.0763C882.519 49.3574 883.419 49.0915 884.138 49.4823L889.669 52.4894L892.677 46.9577C893.067 46.2389 893.967 45.9729 894.686 46.3637L895.987 47.0713Z" fill="#D7F1FD"/>
<path d="M1199.99 45.1299C1200.71 45.5206 1200.97 46.4202 1200.58 47.139L1197.58 52.6707L1203.11 55.6779C1203.83 56.0687 1204.09 56.9682 1203.7 57.687L1202.99 58.9886C1202.6 59.7075 1201.7 59.9734 1200.99 59.5827L1195.45 56.5755L1192.45 62.1073C1192.06 62.8261 1191.16 63.0921 1190.44 62.7013L1189.14 61.9938C1188.42 61.603 1188.15 60.7034 1188.54 59.9846L1191.55 54.4528L1186.02 51.4456C1185.3 51.0549 1185.03 50.1553 1185.42 49.4365L1186.13 48.1349C1186.52 47.416 1187.42 47.1501 1188.14 47.5409L1193.67 50.548L1196.68 45.0163C1197.07 44.2975 1197.97 44.0315 1198.69 44.4223L1199.99 45.1299Z" fill="#D7F1FD"/>
<path d="M1544.99 37.1299C1545.71 37.5206 1545.97 38.4202 1545.58 39.139L1542.58 44.6707L1548.11 47.6779C1548.83 48.0687 1549.09 48.9682 1548.7 49.687L1547.99 50.9886C1547.6 51.7075 1546.7 51.9734 1545.99 51.5827L1540.45 48.5755L1537.45 54.1073C1537.06 54.8261 1536.16 55.0921 1535.44 54.7013L1534.14 53.9938C1533.42 53.603 1533.15 52.7034 1533.54 51.9846L1536.55 46.4528L1531.02 43.4456C1530.3 43.0549 1530.03 42.1553 1530.42 41.4365L1531.13 40.1349C1531.52 39.416 1532.42 39.1501 1533.14 39.5409L1538.67 42.548L1541.68 37.0163C1542.07 36.2975 1542.97 36.0315 1543.69 36.4223L1544.99 37.1299Z" fill="#D7F1FD"/>
<path d="M1306.99 89.1299C1307.71 89.5206 1307.97 90.4202 1307.58 91.139L1304.58 96.6707L1310.11 99.6779C1310.83 100.069 1311.09 100.968 1310.7 101.687L1309.99 102.989C1309.6 103.707 1308.7 103.973 1307.99 103.583L1302.45 100.575L1299.45 106.107C1299.06 106.826 1298.16 107.092 1297.44 106.701L1296.14 105.994C1295.42 105.603 1295.15 104.703 1295.54 103.985L1298.55 98.4528L1293.02 95.4456C1292.3 95.0549 1292.03 94.1553 1292.42 93.4365L1293.13 92.1349C1293.52 91.416 1294.42 91.1501 1295.14 91.5409L1300.67 94.548L1303.68 89.0163C1304.07 88.2975 1304.97 88.0315 1305.69 88.4223L1306.99 89.1299Z" fill="white"/>
<path d="M564.987 43.0713C565.706 43.462 565.972 44.3616 565.581 45.0804L562.574 50.6121L568.106 53.6193C568.825 54.0101 569.091 54.9096 568.7 55.6284L567.992 56.93C567.602 57.6489 566.702 57.9148 565.983 57.5241L560.451 54.5169L557.444 60.0487C557.054 60.7676 556.154 61.0335 555.435 60.6427L554.134 59.9352C553.415 59.5444 553.149 58.6449 553.54 57.926L556.547 52.3942L551.015 49.387C550.296 48.9963 550.03 48.0967 550.421 47.3779L551.129 46.0763C551.519 45.3574 552.419 45.0915 553.138 45.4823L558.669 48.4894L561.677 42.9577C562.067 42.2389 562.967 41.9729 563.686 42.3637L564.987 43.0713Z" fill="#D7F1FD"/>
<path d="M2860 124.601L2835.72 105.375C2825.21 98.899 2814.48 102.677 2810.44 105.375L2791.22 119.542C2780.7 126.018 2770.65 122.24 2766.95 119.542L2751.77 108.411C2742.06 99.5058 2728.17 104.7 2722.44 108.411L2705.25 119.542C2696.35 124.399 2685.35 121.566 2680.97 119.542L2663.78 105.375C2654.88 98.899 2641.86 102.677 2636.47 105.375L2614.22 119.542C2602.08 126.018 2589.6 122.24 2584.88 119.542L2560.61 103.352C2550.9 96.8758 2539.03 100.653 2534.31 103.352L2516.1 113.47C2503.16 121.565 2490.48 116.843 2485.76 113.47L2470.59 100.316C2455.21 88.9832 2439.23 95.594 2433.16 100.316L2409.9 116.506C2396.95 123.792 2385.63 119.542 2381.58 116.506L2359.33 100.316C2346.38 89.7925 2328.98 95.9313 2321.9 100.316C2317.18 103.352 2303.9 111.447 2288.53 119.542C2273.15 127.637 2261.22 122.915 2257.17 119.542L2233.91 103.352C2222.58 93.6375 2207.61 99.3041 2201.54 103.352L2176.74 127.561C2170.38 134.578 2152.04 144.344 2128.75 128.605L2128.76 128.559L2102.98 108.374C2092.46 101.899 2081.74 105.676 2077.69 108.374L2058.48 122.54C2047.96 129.016 2037.91 125.238 2034.2 122.54L2019.03 111.41C2009.32 102.505 1995.43 107.7 1989.7 111.41L1972.5 122.54C1963.6 127.397 1952.61 124.564 1948.23 122.54L1931.03 108.374C1922.13 101.899 1909.12 105.676 1903.72 108.374L1881.47 122.54C1869.33 129.016 1856.86 125.238 1852.14 122.54L1827.86 106.351C1818.15 99.8756 1806.29 103.653 1801.57 106.351L1783.36 116.469C1770.41 124.563 1757.74 119.841 1753.02 116.469L1737.84 103.316C1722.47 91.9835 1706.49 98.5939 1700.42 103.316L1677.16 119.504C1664.21 126.79 1652.88 122.54 1648.84 119.504L1626.58 103.316C1613.64 92.7928 1596.24 98.9311 1589.16 103.316C1584.44 106.351 1571.16 114.446 1555.78 122.54C1540.41 130.635 1528.47 125.913 1524.43 122.54L1501.16 106.351C1489.83 96.6376 1474.86 102.304 1468.8 106.351C1462.73 110.398 1448.9 122.628 1444.5 125.559C1435.5 131.559 1423.89 130.676 1419 128.059C1409 122.71 1395.27 110.34 1389.2 106.292C1383.14 102.245 1368.17 96.579 1356.84 106.292L1333.57 122.482C1329.53 125.854 1317.59 130.576 1302.22 122.482C1286.84 114.387 1273.56 106.293 1268.84 103.257C1261.76 98.8725 1244.36 92.7342 1231.42 103.257L1209.16 119.446C1205.12 122.481 1193.79 126.731 1180.84 119.446L1157.58 103.257C1151.51 98.5353 1135.53 91.9249 1120.16 103.257L1104.98 116.41C1100.26 119.783 1087.59 124.504 1074.64 116.41L1056.43 106.292C1051.71 103.594 1039.85 99.817 1030.14 106.292L1005.86 122.482C1001.14 125.18 988.666 128.957 976.529 122.482L954.277 108.316C948.882 105.618 935.868 101.84 926.967 108.316C926.967 108.316 914.156 120.458 909.773 122.482C905.39 124.505 894.398 127.339 885.497 122.482L868.303 111.351C862.571 107.641 848.68 102.447 838.97 111.351L823.798 122.482C820.09 125.18 810.043 128.957 799.523 122.482L780.306 108.316C776.26 105.618 765.538 101.84 755.019 108.316L729.245 128.5L729.246 128.546C705.964 144.285 687.623 134.52 681.261 127.502L656.46 103.293C650.392 99.2455 635.422 93.5789 624.094 103.293L600.83 119.483C596.784 122.856 584.849 127.578 569.475 119.483C554.101 111.388 540.817 103.293 536.097 100.258C529.016 95.8727 511.619 89.7339 498.673 100.258L476.421 116.447C472.375 119.483 461.046 123.733 448.1 116.447L424.836 100.258C418.767 95.5354 402.786 88.9246 387.412 100.258L372.24 113.412C367.52 116.784 354.843 121.506 341.896 113.412L323.69 103.293C318.97 100.595 307.102 96.8172 297.392 103.293L273.117 119.483C268.397 122.182 255.922 125.96 243.785 119.483L221.533 105.316C216.138 102.618 203.124 98.8404 194.223 105.316L177.028 119.483C172.645 121.507 161.654 124.341 152.753 119.483L135.559 108.352C129.827 104.642 115.936 99.4472 106.226 108.352L91.0543 119.483C87.3456 122.182 77.2984 125.96 66.7793 119.483L47.5616 105.316C43.5157 102.618 32.7942 98.8404 22.275 105.316L-2 124.542" stroke="#2967AC" stroke-width="5" stroke-linecap="round"/>
<path d="M2846 80.6009L2821.72 61.3751C2811.21 54.899 2800.48 58.6767 2796.44 61.3751L2777.22 75.5419C2766.7 82.0183 2756.65 78.2404 2752.95 75.5419L2737.77 64.4107C2728.06 55.5058 2714.17 60.7004 2708.44 64.4107L2691.25 75.5419C2682.35 80.3993 2671.35 77.5658 2666.97 75.5419L2649.78 61.3751C2640.88 54.899 2627.86 58.6767 2622.47 61.3751L2600.22 75.5419C2588.08 82.0183 2575.6 78.2404 2570.88 75.5419L2546.61 59.3516C2536.9 52.8758 2525.03 56.6534 2520.31 59.3516L2502.1 69.4702C2489.16 77.565 2476.48 72.843 2471.76 69.4702L2456.59 56.3161C2441.21 44.9832 2425.23 51.594 2419.16 56.3161L2395.9 72.506C2382.95 79.7916 2371.63 75.5417 2367.58 72.506L2345.33 56.3161C2332.38 45.7925 2314.98 51.9313 2307.9 56.3161C2303.18 59.3517 2289.9 67.4468 2274.53 75.5419C2259.15 83.6369 2247.22 78.9148 2243.17 75.5419L2219.91 59.3516C2208.58 49.6375 2193.61 55.3041 2187.54 59.3516L2162.74 83.5609C2156.38 90.5782 2138.04 100.344 2114.75 84.6046L2114.76 84.5586L2088.98 64.3743C2078.46 57.8987 2067.74 61.6761 2063.69 64.3743L2044.48 78.5401C2033.96 85.0161 2023.91 81.2384 2020.2 78.5401L2005.03 67.4097C1995.32 58.5054 1981.43 63.6996 1975.7 67.4097L1958.5 78.5401C1949.6 83.3972 1938.61 80.5639 1934.23 78.5401L1917.03 64.3743C1908.13 57.8987 1895.12 61.6761 1889.72 64.3743L1867.47 78.5401C1855.33 85.0161 1842.86 81.2384 1838.14 78.5401L1813.86 62.351C1804.15 55.8756 1792.29 59.6529 1787.57 62.351L1769.36 72.4688C1756.41 80.5631 1743.74 75.8414 1739.02 72.4688L1723.84 59.3157C1708.47 47.9835 1692.49 54.5939 1686.42 59.3157L1663.16 75.5045C1650.21 82.7895 1638.88 78.5399 1634.84 75.5045L1612.58 59.3157C1599.64 48.7928 1582.24 54.9311 1575.16 59.3157C1570.44 62.3511 1557.16 70.4456 1541.78 78.5401C1526.41 86.6346 1514.47 81.9128 1510.43 78.5401L1487.16 62.351C1475.83 52.6376 1460.86 58.3037 1454.8 62.351C1448.73 66.3982 1434.9 78.6279 1430.5 81.5586C1421.5 87.5586 1409.89 86.6757 1405 84.0586C1395 78.7097 1381.27 66.3396 1375.2 62.2924C1369.14 58.2451 1354.17 52.579 1342.84 62.2924L1319.57 78.4815C1315.53 81.8542 1303.59 86.576 1288.22 78.4815C1272.84 70.387 1259.56 62.2925 1254.84 59.2571C1247.76 54.8725 1230.36 48.7342 1217.42 59.2571L1195.16 75.4459C1191.12 78.4813 1179.79 82.7309 1166.84 75.4459L1143.58 59.2571C1137.51 54.5353 1121.53 47.9249 1106.16 59.2571L1090.98 72.4102C1086.26 75.7828 1073.59 80.5045 1060.64 72.4102L1042.43 62.2924C1037.71 59.5943 1025.85 55.817 1016.14 62.2924L991.861 78.4815C987.141 81.1798 974.666 84.9575 962.529 78.4815L940.277 64.3157C934.882 61.6175 921.868 57.8401 912.967 64.3157C912.967 64.3157 900.156 76.4578 895.773 78.4815C891.39 80.5053 880.398 83.3386 871.497 78.4815L854.303 67.3511C848.571 63.641 834.68 58.4468 824.97 67.3511L809.798 78.4815C806.09 81.1798 796.043 84.9575 785.523 78.4815L766.306 64.3157C762.26 61.6175 751.538 57.8401 741.019 64.3157L715.245 84.5L715.246 84.546C691.964 100.285 673.623 90.5196 667.261 83.5023L642.46 59.293C636.392 55.2455 621.422 49.5789 610.094 59.293L586.83 75.4833C582.784 78.8562 570.849 83.5784 555.475 75.4833C540.101 67.3882 526.817 59.2932 522.097 56.2575C515.016 51.8727 497.619 45.7339 484.673 56.2575L462.421 72.4474C458.375 75.4831 447.046 79.733 434.1 72.4474L410.836 56.2575C404.767 51.5354 388.786 44.9246 373.412 56.2575L358.24 69.4116C353.52 72.7844 340.843 77.5064 327.896 69.4116L309.69 59.293C304.97 56.5948 293.102 52.8172 283.392 59.293L259.117 75.4833C254.397 78.1818 241.922 81.9597 229.785 75.4833L207.533 61.3165C202.138 58.6181 189.124 54.8404 180.223 61.3165L163.028 75.4833C158.645 77.5072 147.654 80.3407 138.753 75.4833L121.559 64.3521C115.827 60.6418 101.936 55.4472 92.2262 64.3521L77.0543 75.4833C73.3456 78.1818 63.2984 81.9597 52.7793 75.4833L33.5616 61.3165C29.5157 58.6181 18.7942 54.8404 8.27503 61.3165L-16 80.5423" stroke="#B9DAF7" stroke-width="5" stroke-linecap="round"/>
<path d="M1093.19 59.3132C1094.46 60.5887 1094.45 62.6474 1093.17 63.9114L1083.8 73.1928L1093.09 82.5594C1094.35 83.835 1094.34 85.8936 1093.07 87.1576L1091.01 89.1919C1089.74 90.4558 1087.68 90.4465 1086.41 89.1709L1077.13 79.8043L1067.77 89.0859C1066.49 90.3499 1064.43 90.3405 1063.17 89.065L1061.13 87.012C1059.87 85.7365 1059.88 83.6778 1061.15 82.4138L1070.52 73.1322L1061.24 63.7656C1059.98 62.4901 1059.99 60.4314 1061.26 59.1675L1063.31 57.1331C1064.59 55.8692 1066.65 55.8786 1067.91 57.1541L1077.19 66.5207L1086.56 57.2393C1087.84 55.9753 1089.89 55.9847 1091.16 57.2602L1093.19 59.3132Z" fill="#F5FCFF"/>
<path d="M1352.19 46.1039C1352.77 46.4165 1352.98 47.1361 1352.67 47.7112L1350.26 52.1366L1354.69 54.5423C1355.26 54.8549 1355.47 55.5746 1355.16 56.1496L1354.6 57.1909C1354.28 57.766 1353.56 57.9787 1352.99 57.6661L1348.56 55.2604L1346.16 59.6858C1345.84 60.2609 1345.13 60.4737 1344.55 60.1611L1343.51 59.595C1342.93 59.2824 1342.72 58.5628 1343.03 57.9877L1345.44 53.5622L1341.01 51.1565C1340.44 50.8439 1340.23 50.1243 1340.54 49.5492L1341.1 48.5079C1341.42 47.9328 1342.14 47.7201 1342.71 48.0327L1347.14 50.4384L1349.54 46.0131C1349.86 45.438 1350.58 45.2252 1351.15 45.5378L1352.19 46.1039Z" fill="#2967AC"/>
<path d="M1776.19 41.1039C1776.77 41.4165 1776.98 42.1361 1776.67 42.7112L1774.26 47.1366L1778.69 49.5423C1779.26 49.8549 1779.47 50.5746 1779.16 51.1496L1778.6 52.1909C1778.28 52.766 1777.56 52.9787 1776.99 52.6661L1772.56 50.2604L1770.16 54.6858C1769.84 55.2609 1769.13 55.4737 1768.55 55.1611L1767.51 54.595C1766.93 54.2824 1766.72 53.5628 1767.03 52.9877L1769.44 48.5622L1765.01 46.1565C1764.44 45.8439 1764.23 45.1243 1764.54 44.5492L1765.1 43.5079C1765.42 42.9328 1766.14 42.7201 1766.71 43.0327L1771.14 45.4384L1773.54 41.0131C1773.86 40.438 1774.58 40.2252 1775.15 40.5378L1776.19 41.1039Z" fill="#2967AC"/>
<circle r="4" transform="matrix(-1 0 0 1 1361 90)" fill="#B9DAF7"/>
<circle cx="761" cy="151" r="4" transform="rotate(-180 761 151)" fill="#F5FCFF"/>
<circle r="4" transform="matrix(-1 0 0 1 1563 143)" fill="white"/>
<circle r="4" transform="matrix(-1 0 0 1 940 203)" fill="white"/>
<circle cx="963" cy="98" r="4" transform="rotate(-180 963 98)" fill="white"/>
<circle cx="219" cy="95" r="4" transform="rotate(-180 219 95)" fill="white"/>
<circle r="4" transform="matrix(-1 0 0 1 1831 175)" fill="#2967AC"/>
<circle r="4" transform="matrix(-1 0 0 1 1087 172)" fill="#2967AC"/>
<circle cx="1231" cy="66" r="4" transform="rotate(-180 1231 66)" fill="#2967AC"/>
<circle cx="487" cy="63" r="4" transform="rotate(-180 487 63)" fill="#2967AC"/>
<path d="M139.5 201C140.605 201 141.5 201.895 141.5 203V211.5H150C151.105 211.5 152 212.395 152 213.5V215.5C152 216.604 151.105 217.5 150 217.5H141.5V226C141.5 227.105 140.605 228 139.5 228H137.5C136.395 228 135.5 227.105 135.5 226V217.5H127C125.895 217.5 125 216.604 125 215.5V213.5C125 212.395 125.895 211.5 127 211.5H135.5V203C135.5 201.895 136.395 201 137.5 201H139.5Z" fill="#D7F1FD"/>
<path d="M1626.5 161C1625.4 161 1624.5 161.895 1624.5 163V171.5H1616C1614.9 171.5 1614 172.395 1614 173.5V175.5C1614 176.604 1614.9 177.5 1616 177.5H1624.5V186C1624.5 187.105 1625.4 188 1626.5 188H1628.5C1629.6 188 1630.5 187.105 1630.5 186V177.5H1639C1640.1 177.5 1641 176.604 1641 175.5V173.5C1641 172.395 1640.1 171.5 1639 171.5H1630.5V163C1630.5 161.895 1629.6 161 1628.5 161H1626.5Z" fill="#D7F1FD"/>
<path d="M232 173.355C232.567 173.682 232.761 174.407 232.434 174.974L229.915 179.336L234.278 181.855C234.844 182.182 235.039 182.907 234.711 183.474L234.119 184.5C233.791 185.067 233.067 185.261 232.5 184.934L228.138 182.415L225.619 186.777C225.292 187.344 224.567 187.539 224 187.211L222.974 186.619C222.407 186.291 222.213 185.567 222.54 185L225.058 180.637L220.696 178.119C220.129 177.792 219.935 177.067 220.262 176.5L220.855 175.474C221.182 174.907 221.907 174.712 222.474 175.04L226.836 177.558L229.355 173.196C229.682 172.629 230.407 172.435 230.974 172.762L232 173.355Z" fill="white"/>
<path d="M471.441 200.296C472.008 200.624 472.202 201.348 471.875 201.915L469.357 206.277L473.719 208.796C474.286 209.123 474.48 209.848 474.153 210.415L473.56 211.441C473.233 212.008 472.508 212.202 471.941 211.875L467.579 209.357L465.06 213.719C464.733 214.286 464.008 214.48 463.441 214.153L462.415 213.56C461.848 213.233 461.654 212.508 461.981 211.941L464.5 207.579L460.138 205.06C459.571 204.733 459.376 204.008 459.704 203.441L460.296 202.415C460.624 201.848 461.348 201.654 461.915 201.981L466.278 204.5L468.796 200.138C469.123 199.571 469.848 199.376 470.415 199.704L471.441 200.296Z" fill="#2967AC"/>
<path d="M930.987 214.13C931.706 214.521 931.972 215.42 931.581 216.139L928.574 221.671L934.106 224.678C934.825 225.069 935.091 225.968 934.7 226.687L933.992 227.989C933.602 228.707 932.702 228.973 931.983 228.583L926.451 225.575L923.444 231.107C923.054 231.826 922.154 232.092 921.435 231.701L920.134 230.994C919.415 230.603 919.149 229.703 919.54 228.985L922.547 223.453L917.015 220.446C916.296 220.055 916.03 219.155 916.421 218.436L917.129 217.135C917.519 216.416 918.419 216.15 919.138 216.541L924.669 219.548L927.677 214.016C928.067 213.297 928.967 213.032 929.686 213.422L930.987 214.13Z" fill="#D7F1FD"/>
<circle r="17" transform="matrix(-1 0 0 1 506.449 205)" fill="#D7F1FD"/>
<path d="M144 252C144 248.817 145.264 245.765 147.515 243.515C149.765 241.264 152.817 240 156 240C159.183 240 162.235 241.264 164.485 243.515C166.736 245.765 168 248.817 168 252L156 252H144Z" fill="#D7F1FD"/>
<path d="M1622 252C1622 248.817 1620.74 245.765 1618.49 243.515C1616.23 241.264 1613.18 240 1610 240C1606.82 240 1603.77 241.264 1601.51 243.515C1599.26 245.765 1598 248.817 1598 252L1610 252H1622Z" fill="#D7F1FD"/>
</g>
<defs>
<clipPath id="clip0_842_2060">
<rect width="1920" height="250" fill="white"/>
</clipPath>
</defs>
</svg>
