<svg width="1200" height="600" viewBox="0 0 1200 600" fill="none" xmlns="http://www.w3.org/2000/svg">
<path d="M433.496 603.258L1882 661V-151C1409.47 -96.8666 460.434 11.4 444.536 11.4C424.664 11.4 -158.271 33.0533 -140.607 184.627C-126.475 305.885 65.4815 355.447 159.693 365.071C207.535 361.462 302.777 376.62 301.011 466.12C299.244 555.62 388.598 594.837 433.496 603.258Z" fill="#F5FCFF"/>
<path d="M640.634 547.582C687.419 554.935 2150 598 2150 598V-111C1657.62 -63.7333 668.705 30.8 652.139 30.8C631.431 30.8 24.0031 49.7067 42.41 182.053C57.1355 287.931 257.157 331.206 355.327 339.609C405.179 336.458 504.423 349.692 502.582 427.84C500.742 505.988 593.85 540.23 640.634 547.582Z" fill="#D7F1FD"/>
<path d="M678 114C628.5 134 562.774 213.453 651 281.5C745 354 793 365 836 375.5" stroke="#B9DAF6" stroke-linecap="round" style="mix-blend-mode:overlay"/>
<path fill-rule="evenodd" clip-rule="evenodd" d="M712.627 108.864C715.187 107.83 718.101 109.067 719.136 111.627C720.17 114.188 718.933 117.102 716.373 118.136C692.021 127.976 661.378 147.004 647.014 171.806C639.938 184.025 636.879 197.509 640.269 212.13C643.684 226.856 653.787 243.368 674.285 261.231C757.421 333.678 841.951 352.18 873.052 352.501L873.277 352.503L873.501 352.526C885.606 353.745 903.506 358.139 917.885 367.598C932.463 377.188 943.88 392.397 940.957 414.651C935.974 452.598 952.053 476.144 959.742 482.694C961.844 484.485 962.097 487.641 960.306 489.743C958.516 491.845 955.36 492.097 953.258 490.307C942.947 481.523 925.625 454.602 931.043 413.349C933.32 396.004 924.82 384.13 912.39 375.953C899.844 367.699 883.773 363.643 872.717 362.497C838.984 362.065 752.384 342.553 667.715 268.77C646.213 250.032 634.566 231.807 630.528 214.389C626.465 196.867 630.25 180.8 638.361 166.795C654.372 139.146 687.479 119.025 712.627 108.864ZM991.055 521.541C988.823 519.915 988.333 516.787 989.959 514.555C991.586 512.324 994.713 511.833 996.945 513.46C1005.99 520.055 1034.04 534 1070.5 534C1073.26 534 1075.5 536.239 1075.5 539C1075.5 541.762 1073.26 544 1070.5 544C1031.76 544 1001.67 529.279 991.055 521.541Z" fill="#B9DAF6" style="mix-blend-mode:overlay"/>
<path d="M1056.62 477.898C1085.27 483.892 1981 519 1981 519V-59C1679.45 -20.4667 1073.81 56.6 1063.67 56.6C1050.98 56.6 678.978 72.0133 690.251 179.907C699.269 266.221 881.891 308.351 881.891 308.351C881.891 308.351 973.201 316.572 972.074 380.28C970.947 443.988 1027.97 471.904 1056.62 477.898Z" fill="#B9DAF6"/>
<path fill-rule="evenodd" clip-rule="evenodd" d="M862.338 101.009C863.162 100.92 863.902 101.515 863.991 102.339C864.08 103.163 863.484 103.902 862.661 103.991L862.506 102.56C862.661 103.991 862.661 103.991 862.661 103.991L862.659 103.992L862.652 103.992L862.624 103.996L862.507 104.009C862.403 104.02 862.247 104.038 862.042 104.062C861.631 104.11 861.021 104.183 860.232 104.283C858.653 104.483 856.353 104.79 853.479 105.217C847.728 106.071 839.681 107.408 830.499 109.333C812.108 113.188 789.275 119.385 771.223 128.749C762.164 133.449 752.507 139.377 744.679 146.484C736.84 153.6 730.952 161.789 729.198 170.997C727.455 180.141 729.738 190.564 738.79 202.308C747.869 214.089 763.718 227.134 788.947 241.37C789.669 241.777 789.924 242.692 789.517 243.413C789.109 244.135 788.195 244.39 787.473 243.982C762.074 229.651 745.84 216.37 736.414 204.139C726.96 191.873 724.314 180.599 726.251 170.435C728.175 160.335 734.575 151.604 742.662 144.263C750.759 136.912 760.667 130.846 769.842 126.086C788.258 116.532 811.408 110.27 829.884 106.396C839.135 104.457 847.242 103.111 853.038 102.249C855.936 101.819 858.257 101.509 859.855 101.307C860.655 101.206 861.273 101.131 861.693 101.082C861.903 101.058 862.064 101.039 862.172 101.027L862.295 101.014L862.327 101.01L862.335 101.009L862.337 101.009C862.338 101.009 862.338 101.009 862.5 102.5L862.338 101.009ZM946.519 307.257C946.653 306.44 947.425 305.886 948.242 306.02C961.269 308.157 975.324 316.233 985.367 327.889C995.428 339.564 1001.58 354.973 998.475 371.772C998.324 372.587 997.542 373.126 996.727 372.975C995.913 372.825 995.374 372.043 995.525 371.228C998.423 355.527 992.713 341.009 983.095 329.847C973.459 318.664 960.014 310.991 947.757 308.98C946.939 308.846 946.385 308.075 946.519 307.257ZM997.662 383.009C996.839 382.919 996.098 383.514 996.009 384.337C994.972 393.835 997.046 408.741 1006.5 422.908C1015.99 437.116 1032.83 450.486 1061.17 456.962C1061.97 457.147 1062.78 456.642 1062.96 455.834C1063.15 455.027 1062.64 454.222 1061.83 454.038C1034.17 447.715 1018.01 434.751 1009 421.242C999.953 407.693 998.027 393.499 998.991 384.663C999.081 383.839 998.486 383.099 997.662 383.009Z" fill="#D7F1FD"/>
<g filter="url(#filter0_d_522_2008)">
<path d="M1152.2 382.493C1173.4 386.942 1836 413 1836 413V-16C1612.93 12.6 1164.92 69.8 1157.41 69.8C1148.03 69.8 872.847 81.24 881.186 161.32C887.473 221.701 1007.84 252.949 1021.66 256.343C1022.55 256.561 1023.37 256.69 1024.28 256.801C1033.74 257.957 1090.42 266.698 1089.66 310.04C1088.83 357.325 1131.01 378.044 1152.2 382.493Z" fill="#2967AC"/>
</g>
<path fill-rule="evenodd" clip-rule="evenodd" d="M1135.9 94.4092C1138.66 94.3333 1140.96 96.5095 1141.04 99.2698C1141.11 102.03 1138.94 104.329 1136.18 104.405C1096.29 105.502 1047.51 110.685 1007.74 120.457C987.834 125.349 970.437 131.33 957.587 138.376C944.528 145.537 937.268 153.186 935.555 160.892C933.791 168.825 936.283 176.328 942.615 183.765C949.044 191.316 959.154 198.417 971.616 204.981C996.454 218.063 1029.1 228.241 1055.8 235.739C1056.76 235.946 1057.73 236.154 1058.7 236.364L1058.7 236.364C1080.15 240.985 1104.11 246.146 1120.93 254.898C1129.8 259.508 1137.37 265.449 1141.37 273.479C1145.49 281.762 1145.37 291.369 1140.62 302.199C1136.76 310.995 1137.02 317.655 1139.26 322.836C1141.57 328.182 1146.34 332.752 1152.99 336.537C1166.38 344.156 1185.51 347.526 1199.23 348.172C1201.99 348.301 1204.12 350.643 1203.99 353.401C1203.86 356.159 1201.52 358.29 1198.77 358.161C1184.34 357.482 1163.4 353.965 1148.05 345.228C1140.33 340.835 1133.56 334.86 1130.08 326.805C1126.52 318.584 1126.72 308.987 1131.46 298.183C1135.31 289.412 1134.93 282.983 1132.41 277.934C1129.78 272.632 1124.35 267.945 1116.32 263.769C1100.73 255.66 1077.95 250.747 1055.91 245.992C1055.12 245.822 1054.33 245.651 1053.54 245.481L1053.39 245.449L1053.24 245.408C1026.5 237.9 992.865 227.475 966.956 213.828C954.023 207.016 942.628 199.206 935 190.247C927.275 181.173 923.16 170.565 925.793 158.721C928.477 146.649 939.051 137.135 952.779 129.608C966.716 121.966 985.058 115.734 1005.36 110.746C1046 100.759 1095.51 95.5196 1135.9 94.4092ZM1222 350.092C1224.76 350.092 1227 352.331 1227 355.092C1227 357.854 1224.76 360.092 1222 360.092H1212C1209.24 360.092 1207 357.854 1207 355.092C1207 352.331 1209.24 350.092 1212 350.092H1222Z" fill="#B9DAF6" fill-opacity="0.2"/>
<g filter="url(#filter1_d_522_2008)">
<path fill-rule="evenodd" clip-rule="evenodd" d="M1102.56 383.499C1103.39 383.471 1104.04 382.777 1104.01 381.949C1103.98 381.121 1103.29 380.473 1102.46 380.501C1095.03 380.752 1083.08 381.505 1071.36 382.949C1059.71 384.384 1048.05 386.527 1041.33 389.639C1037.93 391.219 1035.68 393.115 1034.44 395.271C1033.19 397.462 1033.08 399.751 1033.64 401.878C1034.71 405.997 1038.28 409.631 1041.07 411.705C1041.74 412.198 1042.68 412.059 1043.17 411.394C1043.66 410.728 1043.52 409.789 1042.86 409.295C1040.26 407.369 1037.36 404.253 1036.54 401.122C1036.15 399.624 1036.25 398.163 1037.05 396.761C1037.87 395.323 1039.53 393.781 1042.6 392.361C1048.83 389.473 1060.04 387.366 1071.73 385.926C1083.35 384.495 1095.2 383.748 1102.56 383.499ZM1049.27 419C1049.94 419 1050.51 419.439 1050.7 420.045C1050.82 420.167 1051.07 420.379 1051.53 420.667C1052.49 421.27 1054.2 422.101 1057.07 423.081C1057.85 423.349 1058.27 424.202 1058 424.986C1057.73 425.769 1056.88 426.187 1056.09 425.919C1053.11 424.899 1051.17 423.98 1049.94 423.208C1049.32 422.824 1048.85 422.45 1048.5 422.084C1048.33 421.9 1048.16 421.693 1048.03 421.46C1047.91 421.242 1047.77 420.909 1047.77 420.5C1047.77 419.672 1048.44 419 1049.27 419Z" fill="#D7F1FD"/>
</g>
<g filter="url(#filter2_d_522_2008)">
<path d="M1026.16 409C1020.76 403.947 1013.19 391.947 1026.16 384.368C1039.14 376.789 1072.03 373.632 1086.85 373" stroke="#D7F1FD" stroke-linecap="round"/>
</g>
<g filter="url(#filter3_d_522_2008)">
<g filter="url(#filter4_d_522_2008)">
<path d="M1118.19 352.6C1096.78 363.728 1075.66 394.865 1072.76 398C1071.54 399.317 1070.58 399.585 1068.58 400.5C1066.78 401.328 1064.41 402 1062.84 405C1062.84 405 1068.47 400.524 1073.28 402.5C1076.94 404 1082.17 404.068 1085.29 403.5C1091.67 402.338 1095.68 398.427 1101.47 398.5C1105.89 398.556 1108.58 403.211 1113.47 404C1116.23 404.444 1119.74 403 1122.34 402C1126.23 400.512 1131.22 403 1131.22 403C1131.22 400.702 1122.06 397.93 1120.98 395.074C1118.25 380.393 1127.87 360.75 1128.58 352.6C1129.14 346.08 1121.89 349.883 1118.19 352.6Z" fill="#8EC1EA"/>
</g>
</g>
<g filter="url(#filter5_d_522_2008)">
<path d="M216.792 176.123C219.685 178.874 231.232 189.994 236.63 197.245C238.708 199.362 238.631 202.794 236.164 204.44C229.969 208.572 220.516 212.223 212.892 206.793C208.172 203.431 201.936 202.27 196.771 201.964C191.355 201.644 186.269 198.012 184.722 192.811C182.802 186.359 179.599 177.977 174.78 172.237C168.858 165.184 164.213 159.74 161.217 156.26C159.758 154.565 160.607 151.981 162.842 151.885C182.662 151.033 210.611 171.341 215.41 174.947C215.903 175.317 216.346 175.698 216.792 176.123Z" fill="#A4A5A4"/>
</g>
<g filter="url(#filter6_d_522_2008)">
<path d="M245.791 204.829C247.544 202.732 246.938 200.49 245.866 198.615C244.898 196.922 245.164 194.771 246.789 193.692L248.286 195.681C252.278 201.726 249.616 206.154 247.787 207.613C245.957 209.071 241.949 210.052 238.305 211.988C233.814 214.374 234.812 216.601 229.323 218.351C223.833 220.101 209.195 214.639 207.365 212.783L208.064 212.505C209.511 211.928 211.137 212.072 212.508 212.811C218.288 215.927 224.332 217.821 228.324 216.76C234.313 215.17 232.75 213.233 235.81 210.795C238.804 208.408 242.796 208.408 245.791 204.829Z" fill="#B9DAF7"/>
</g>
<g filter="url(#filter7_d_522_2008)">
<path d="M203.456 224.692C215.191 229.732 223.711 230.717 231.962 229.142C242.964 227.042 240.093 224.486 245.715 221.267C251.215 218.117 258.55 218.117 264.051 213.392C266.25 211.504 269.586 209.232 268.456 205.192C267.821 202.923 266.85 201.668 265.456 199.692C264.125 197.807 261.891 194.856 260.265 192.821C259.18 191.464 258.677 189.657 259.042 187.958L259.523 185.71C259.698 184.893 260.739 184.639 261.271 185.282L271.956 198.192C278.956 207.692 271.08 215.142 267.718 217.067C264.357 218.992 256.993 220.287 250.299 222.842C242.047 225.992 243.881 228.932 233.796 231.242C223.711 233.552 196.817 226.342 193.456 223.892C193.456 223.892 191.72 219.652 203.456 224.692Z" fill="#B9DAF7"/>
</g>
<defs>
<filter id="filter0_d_522_2008" x="866" y="-26" width="985" height="459" filterUnits="userSpaceOnUse" color-interpolation-filters="sRGB">
<feFlood flood-opacity="0" result="BackgroundImageFix"/>
<feColorMatrix in="SourceAlpha" type="matrix" values="0 0 0 0 0 0 0 0 0 0 0 0 0 0 0 0 0 0 127 0" result="hardAlpha"/>
<feOffset dy="5"/>
<feGaussianBlur stdDeviation="7.5"/>
<feComposite in2="hardAlpha" operator="out"/>
<feColorMatrix type="matrix" values="0 0 0 0 0.160784 0 0 0 0 0.403922 0 0 0 0 0.67451 0 0 0 0.2 0"/>
<feBlend mode="normal" in2="BackgroundImageFix" result="effect1_dropShadow_522_2008"/>
<feBlend mode="normal" in="SourceGraphic" in2="effect1_dropShadow_522_2008" result="shape"/>
</filter>
<filter id="filter1_d_522_2008" x="1032.32" y="379.5" width="74.6924" height="49.5" filterUnits="userSpaceOnUse" color-interpolation-filters="sRGB">
<feFlood flood-opacity="0" result="BackgroundImageFix"/>
<feColorMatrix in="SourceAlpha" type="matrix" values="0 0 0 0 0 0 0 0 0 0 0 0 0 0 0 0 0 0 127 0" result="hardAlpha"/>
<feOffset dx="1" dy="1"/>
<feGaussianBlur stdDeviation="1"/>
<feComposite in2="hardAlpha" operator="out"/>
<feColorMatrix type="matrix" values="0 0 0 0 0.160784 0 0 0 0 0.403922 0 0 0 0 0.67451 0 0 0 0.1 0"/>
<feBlend mode="normal" in2="BackgroundImageFix" result="effect1_dropShadow_522_2008"/>
<feBlend mode="normal" in="SourceGraphic" in2="effect1_dropShadow_522_2008" result="shape"/>
</filter>
<filter id="filter2_d_522_2008" x="1017.5" y="371.5" width="72.8525" height="41" filterUnits="userSpaceOnUse" color-interpolation-filters="sRGB">
<feFlood flood-opacity="0" result="BackgroundImageFix"/>
<feColorMatrix in="SourceAlpha" type="matrix" values="0 0 0 0 0 0 0 0 0 0 0 0 0 0 0 0 0 0 127 0" result="hardAlpha"/>
<feOffset dx="1" dy="1"/>
<feGaussianBlur stdDeviation="1"/>
<feComposite in2="hardAlpha" operator="out"/>
<feColorMatrix type="matrix" values="0 0 0 0 0.160784 0 0 0 0 0.403922 0 0 0 0 0.67451 0 0 0 0.1 0"/>
<feBlend mode="normal" in2="BackgroundImageFix" result="effect1_dropShadow_522_2008"/>
<feBlend mode="normal" in="SourceGraphic" in2="effect1_dropShadow_522_2008" result="shape"/>
</filter>
<filter id="filter3_d_522_2008" x="1061.84" y="348" width="72.375" height="60" filterUnits="userSpaceOnUse" color-interpolation-filters="sRGB">
<feFlood flood-opacity="0" result="BackgroundImageFix"/>
<feColorMatrix in="SourceAlpha" type="matrix" values="0 0 0 0 0 0 0 0 0 0 0 0 0 0 0 0 0 0 127 0" result="hardAlpha"/>
<feOffset dx="1" dy="1"/>
<feGaussianBlur stdDeviation="1"/>
<feComposite in2="hardAlpha" operator="out"/>
<feColorMatrix type="matrix" values="0 0 0 0 0.160784 0 0 0 0 0.403922 0 0 0 0 0.67451 0 0 0 0.1 0"/>
<feBlend mode="normal" in2="BackgroundImageFix" result="effect1_dropShadow_522_2008"/>
<feBlend mode="normal" in="SourceGraphic" in2="effect1_dropShadow_522_2008" result="shape"/>
</filter>
<filter id="filter4_d_522_2008" x="1060.84" y="348" width="72.375" height="60" filterUnits="userSpaceOnUse" color-interpolation-filters="sRGB">
<feFlood flood-opacity="0" result="BackgroundImageFix"/>
<feColorMatrix in="SourceAlpha" type="matrix" values="0 0 0 0 0 0 0 0 0 0 0 0 0 0 0 0 0 0 127 0" result="hardAlpha"/>
<feOffset dy="1"/>
<feGaussianBlur stdDeviation="1"/>
<feComposite in2="hardAlpha" operator="out"/>
<feColorMatrix type="matrix" values="0 0 0 0 0.160784 0 0 0 0 0.403922 0 0 0 0 0.67451 0 0 0 0.2 0"/>
<feBlend mode="normal" in2="BackgroundImageFix" result="effect1_dropShadow_522_2008"/>
<feBlend mode="normal" in="SourceGraphic" in2="effect1_dropShadow_522_2008" result="shape"/>
</filter>
<filter id="filter5_d_522_2008" x="159.493" y="150.858" width="81.6143" height="61.6689" filterUnits="userSpaceOnUse" color-interpolation-filters="sRGB">
<feFlood flood-opacity="0" result="BackgroundImageFix"/>
<feColorMatrix in="SourceAlpha" type="matrix" values="0 0 0 0 0 0 0 0 0 0 0 0 0 0 0 0 0 0 127 0" result="hardAlpha"/>
<feOffset dx="1" dy="1"/>
<feGaussianBlur stdDeviation="1"/>
<feComposite in2="hardAlpha" operator="out"/>
<feColorMatrix type="matrix" values="0 0 0 0 0.160784 0 0 0 0 0.403922 0 0 0 0 0.67451 0 0 0 0.2 0"/>
<feBlend mode="normal" in2="BackgroundImageFix" result="effect1_dropShadow_522_2008"/>
<feBlend mode="normal" in="SourceGraphic" in2="effect1_dropShadow_522_2008" result="shape"/>
</filter>
<filter id="filter6_d_522_2008" x="206.365" y="192.692" width="47" height="29" filterUnits="userSpaceOnUse" color-interpolation-filters="sRGB">
<feFlood flood-opacity="0" result="BackgroundImageFix"/>
<feColorMatrix in="SourceAlpha" type="matrix" values="0 0 0 0 0 0 0 0 0 0 0 0 0 0 0 0 0 0 127 0" result="hardAlpha"/>
<feOffset dx="1" dy="1"/>
<feGaussianBlur stdDeviation="1"/>
<feComposite in2="hardAlpha" operator="out"/>
<feColorMatrix type="matrix" values="0 0 0 0 0.160784 0 0 0 0 0.403922 0 0 0 0 0.67451 0 0 0 0.1 0"/>
<feBlend mode="normal" in2="BackgroundImageFix" result="effect1_dropShadow_522_2008"/>
<feBlend mode="normal" in="SourceGraphic" in2="effect1_dropShadow_522_2008" result="shape"/>
</filter>
<filter id="filter7_d_522_2008" x="192.365" y="183.919" width="85.4004" height="50.7734" filterUnits="userSpaceOnUse" color-interpolation-filters="sRGB">
<feFlood flood-opacity="0" result="BackgroundImageFix"/>
<feColorMatrix in="SourceAlpha" type="matrix" values="0 0 0 0 0 0 0 0 0 0 0 0 0 0 0 0 0 0 127 0" result="hardAlpha"/>
<feOffset dx="1" dy="1"/>
<feGaussianBlur stdDeviation="1"/>
<feComposite in2="hardAlpha" operator="out"/>
<feColorMatrix type="matrix" values="0 0 0 0 0.160784 0 0 0 0 0.403922 0 0 0 0 0.67451 0 0 0 0.1 0"/>
<feBlend mode="normal" in2="BackgroundImageFix" result="effect1_dropShadow_522_2008"/>
<feBlend mode="normal" in="SourceGraphic" in2="effect1_dropShadow_522_2008" result="shape"/>
</filter>
</defs>
</svg>
